# xmcd
#
# Track frame offsets:
#      150
#      25490
#      48285
#      77470
#      104152
#      119135
#      139340
#      157020
#      176745
#      194335
#      216090
#      232375
#      259965
# 
# Disc length: 3767 seconds
#
# Revision: 2
# Processed by: cddbd v1.4PL0 Copyright (c) Steve Scherf et al.
#
# Submitted via: FreeRIP 1.21
#
DISCID=cc0eb50d
DTITLE=Big Allanbik - Black Coffee
DYEAR=1900
DGENRE=blues
TTITLE0=My First Wife Left Me
TTITLE1=Down To The City
TTITLE2=Pack It Up
TTITLE3=Snapshots Of Memories
TTITLE4=Reap What I've Sowed
TTITLE5=A Doggone Day
TTITLE6=Rio de Janeiro
TTITLE7=Goin' Down
TTITLE8=Can You Get Another Man ?
TTITLE9=Outta Town
TTITLE10=Roll'em Pete
TTITLE11=Time Does Tell
TTITLE12=Black Coffee
EXTD=
EXTT0=
EXTT1=
EXTT2=
EXTT3=
EXTT4=
EXTT5=
EXTT6=
EXTT7=
EXTT8=
EXTT9=
EXTT10=
EXTT11=
EXTT12=
PLAYORDER=
